<?xml version="1.0" encoding="UTF-8"?><svg id="a" xmlns="http://www.w3.org/2000/svg" viewBox="0 0 44 40"><defs><linearGradient id="b" x1="38.59" y1="-898.41" x2="39.28" y2="-913.61" gradientTransform="translate(0 -884.52) scale(1 -1)" gradientUnits="userSpaceOnUse"><stop offset=".25" stop-color="#fbba5d"/><stop offset="1" stop-color="#e8412d"/></linearGradient><linearGradient id="c" x1="29.17" y1="-907.82" x2="42.26" y2="-897.71" gradientTransform="translate(0 -884.52) scale(1 -1)" gradientUnits="userSpaceOnUse"><stop offset="0" stop-color="#e8412d"/><stop offset="1" stop-color="#fcc260"/></linearGradient><linearGradient id="d" x1="29.9" y1="-893.17" x2="21.48" y2="-913.92" gradientTransform="translate(0 -884.52) scale(1 -1)" gradientUnits="userSpaceOnUse"><stop offset=".13" stop-color="#6c1226"/><stop offset=".94" stop-color="#e8412d"/></linearGradient><linearGradient id="e" x1="26.5" y1="-886.04" x2="6.75" y2="-922.21" gradientTransform="translate(0 -884.52) scale(1 -1)" gradientUnits="userSpaceOnUse"><stop offset=".03" stop-color="#6b1226"/><stop offset=".92" stop-color="#e8412d"/></linearGradient></defs><path d="m42.27,14.42c.03-.17.09-.55.09-.73,0-1.88-1.53-3.41-3.41-3.41s-3.41,1.53-3.41,3.41c0,0-.09,14.62-.09,14.67,0,.84.68,1.51,1.51,1.51s1.31-.64,1.51-1.39c.91-3.49,3.79-14.06,3.79-14.06h0Z" style="fill:url(#b);"/><path d="m42.36,13.67c0-1.88-1.53-3.41-3.41-3.41-.89,0-1.79.27-2.33.91-3.39,3.99-9.84,11.89-13.2,15.9-.46.55-.81,1.21-.81,1.98,0,1.56,1.26,2.82,2.82,2.82,1.03,0,1.6-.41,2.26-1.11,3.45-3.7,10.12-11.02,13.53-14.55.65-.67,1.12-1.53,1.12-2.53h0Z" style="fill:url(#c);"/><path d="m31.81,5.23c.23-1.88-1.53-3.56-3.42-3.56s-3.53,1.5-3.53,3.39c0,0-2.29,23.84-2.29,24.03,0,1.56,1.26,2.82,2.82,2.82s2.63-1.28,2.85-2.82c.86-5.98,3.47-23.05,3.57-23.86h0Z" style="fill:url(#d);"/><path d="m31.24,7.05c2.25-3.92-2.46-7.03-5.26-4.41h-.02S2.42,31.47,2.42,31.47c-.44.66-.73,1.49-.78,2.51.16,4.33,4.91,5.47,7.34,3.23,0,0,.76-.83,1-1.2L31.24,7.05Z" style="fill:url(#e);"/></svg>